<?xml version="1.0" encoding="utf-8"?>
<!-- Generator: Adobe Illustrator 28.3.0, SVG Export Plug-In . SVG Version: 6.00 Build 0)  -->
<svg version="1.1" id="Calque_1" xmlns="http://www.w3.org/2000/svg" xmlns:xlink="http://www.w3.org/1999/xlink" x="0px" y="0px"
	 viewBox="0 0 211.1 165" style="enable-background:new 0 0 211.1 165;" xml:space="preserve">
<style type="text/css">
	.st0{fill:#2B2B2E;}
	.st1{fill:#3F3F42;}
	.st2{fill:#333336;}
	.st3{fill:#2D2D30;}
	.st4{fill:#2E2E31;}
	.st5{fill:#313134;}
	.st6{fill:#4B4B4E;}
	.st7{fill:#49494C;}
	.st8{fill:#353538;}
	.st9{fill:#2C2C2F;}
	.st10{fill:#39393C;}
	.st11{fill:#353537;}
	.st12{fill:#4A4A4D;}
	.st13{fill:#323235;}
	.st14{fill:#8B8B8D;}
	.st15{fill:#555557;}
	.st16{fill:#737376;}
	.st17{fill:#606062;}
	.st18{fill:#959596;}
	.st19{fill:#FBFBFB;}
	.st20{fill:#FCFCFC;}
	.st21{fill:#FAFAFA;}
	.st22{fill:#FDFDFD;}
	.st23{fill:#F8F8F8;}
	.st24{fill:#F9F9F9;}
	.st25{fill:#454548;}
</style>
<path class="st0" d="M37.4,101.9c0,10.8,0,21.6,0,32.4c0,4.4,0.4,8.8-0.8,13.1c-2.1,7.5-9.5,12-16.9,10.2c-0.2,0-0.3-0.2-0.6-0.3
	c1.8-0.2,3.4-0.3,5.1-0.6c6.3-1.1,10.6-5.7,11.6-12.3c0.3-1.9,0.4-3.8,0.4-5.8c0-12.9,0-25.8,0-38.7c0-2.6-1.1-4.7-2.3-7
	c0,0.6,0,1.2,0,1.8c0,14.3,0,28.5,0,42.8c0,3.6-0.4,7.1-2,10.3c-3.3,6.8-12.8,9.8-18.8,5.9c-2.7-1.7-3.9-4.3-3.3-7
	c0.3-1.4,1.1-2.3,2.3-2.9c1-0.4,1.8-0.6,2.5,0.7c1.2,2.3,6.3,2,8-1c0.8-1.5,1.2-3.1,1.2-4.8c0-9.3,0-18.6,0.1-27.9
	c0-10.2,0-20.4,0-30.6c0-1.8-0.6-1.9-2-1.3c-2.3,1-3.7,2.9-3.5,5.2c0.1,2.4-1.9,5-4.4,5.5c-4,0.9-7.8-1.8-8.8-6.1
	c-1.7-7.4,2.4-13.8,10.3-15.8c6.3-1.6,12.8-1.5,19.2-2.3c1.2-0.2,1.1,0.9,1.3,1.6c5.1,13.1,10.2,26.2,15.3,39.4
	c0.3,0.7,0.6,1.5,1.1,2.6c0.4-2.1,0.2-3.7-0.4-5.3c-4.4-11.3-8.8-22.6-13.2-34c-0.2-0.6-0.8-1.2-0.1-2.6C43.3,79,47.8,90.5,52.3,102
	c0.6-0.7,0.4-1.3,0.4-1.8c0-10.6,0-21.3,0-31.9c0-1.7,0-3.5-1.2-5c-0.4-0.5-0.4-1,0.3-1.2c4-1,7.9-2.1,12.3-3.3
	c-2.6,4.5-1.7,9-1.7,13.4c-0.1,20.3,0,40.6,0,60.9c0,1.9-0.2,3.8,1.2,5.3c0.4,0.5,0.3,0.9-0.4,1.1c-2.8,0.7-5.6,1.5-8.4,2.3
	c-1.3,0.4-1.2-0.7-1.5-1.3c-3.6-9.1-7.3-18.3-10.9-27.4c-1.5-3.9-3.1-7.8-4.6-11.6C37.7,101.9,37.5,101.9,37.4,101.9z"/>
<path class="st0" d="M109.7,102.6c2.7-12.8,5.3-25.7,8-38.5c0.2-0.9,0.3-1.9,0.6-2.8c0.5-1.6,0.6-3.1-1.1-4.5
	c3.6-1.1,6.9-2.1,10.2-3.1c1.3-0.4,1,0.8,1.1,1.3c1.8,7.2,3.5,14.4,5.2,21.6c1.7,7.1,3.4,14.3,5.2,21.4c0.3,1.3,0.7,2.5,1.6,3.5
	c0.7,0.8,0.5,1.1-0.5,1.4c-3.3,0.7-6.5,1.5-10.3,2.3c1.5-2.3,0.9-4.2,0.5-6.2c-0.2-0.8-0.4-1.5-1.5-0.9c-0.7,0.4-1.6,0.6-2.4,0.7
	c-3.8,0.3-5.2,2.4-5.3,6c0,1.9-1.2,3.7-0.1,5.6c0.4,0.6-0.2,0.9-0.7,1c-3.2,1-6.3,2.1-9.6,3.2c-0.3-1.3,0.6-1.4,1.3-1.6
	c2.3-0.8,4.6-1.6,6.9-2.3c0.5-0.2,1.2-0.3,0.9-0.9c-1.1-1.9,0-3.8,0-5.6c0-4,2-5.8,5.7-6.3c1.1-0.1,2.1-0.6,3.2-0.9
	c0.8-0.2,1-0.6,0.8-1.4c-0.2-0.9-0.6-0.9-1.4-0.7c-2.9,0.9-5.8,1.8-8.7,2.6c-0.7,0.2-1,0.6-1.1,1.3c-0.4,2.3-0.9,4.5-1.3,6.8
	c-0.1,0.4-0.1,1,0.1,1.3c1,1.8,0.1,2.2-1.4,2.7c-2.7,0.8-5.4,1.8-8.1,2.7c-0.6,0.1-0.7-0.3-0.7-0.7c0.6-2.1,1.8-4,2-6.1
	C108.8,104.2,108.9,103.3,109.7,102.6z"/>
<path class="st0" d="M157.8,90.2c0.8,1.1,1.9,1.4,3.2,0.9c1.3-0.5,1.4-1.5,1.4-2.6c0-4.3,0-8.5,0-12.8c0-1.5-0.2-3-1.1-4.2
	c-0.7-0.9-0.4-1.2,0.6-1.3c3.3-0.3,6.5-0.7,9.8-1c1-0.1,1.3,0.3,0.7,1c-1.2,1.7-1.2,3.6-1.2,5.5c0,5-0.1,10.1,0.1,15.1
	c0.1,2.6-1.1,4.2-3,5.6c-9.3,6.8-21.2,3.2-24.6-7.9c-3.5-11.6-2.7-23.1,4.1-33.5c4.5-6.8,11.1-9.7,19.3-8.9c1.7,0.2,2.9,0.6,2.6,2.8
	c-0.2,2,0,4-0.1,6c0,0.5,0.3,1.2-0.6,1.4c-0.5-0.1-1-0.1-1.4-0.3c-3.6-2-7-1.6-10,1.3c-1.9,1.8-3.2,4.1-4,6.5
	c-2.2,6-2.4,12.2-0.9,18.4c0.7,2.9,1.9,5.6,4.4,7.5C157.3,89.9,157.5,90.1,157.8,90.2z"/>
<path class="st0" d="M199.6,56.2c-2.6-0.4-5.1-0.2-7.6-0.4c-1.2-0.1-1.6,0.2-1.6,1.4c0.1,2.3,0.1,4.5,0,6.8
	c-0.1,1.4,0.4,1.9,1.7,1.4c0.4-0.1,0.8-0.2,1.1-0.3c2.2-0.8,2.2-0.8,2.2,1.7c0,2.3,0,4.6,0,7c0,1,0,2-1.7,1.7
	c-3.4-0.4-3.4-0.3-3.4,3.1c0,3,0,6.1,0,9.1c0,1.1,0.2,1.6,1.5,1.6c2.7,0,5.5,0.7,8-1.2c0.6-0.5,0.9,0.1,0.9,0.7c0,2.8,0,5.5,0,8.3
	c0,0.8-0.5,0.9-1.1,0.9c-7.3-0.2-14.7-0.4-22-0.6c-0.9,0-1.2-0.3-0.7-1.1c1.1-1.6,1.2-3.5,1.2-5.4c0-13.1,0-26.3,0-39.4
	c0-1.7-0.1-3.4-1.1-4.8c-0.7-1-0.5-1.3,0.7-1.3c1.2,0.1,2.3,0,3.5,0.1c5.7,0.1,11.3,0.3,17,0.4c0.8,0,1.3,0,1.3,1.1
	C199.5,49.9,199.6,53,199.6,56.2z"/>
<path class="st0" d="M103.2,67.3c0,1.2,0,2.4,0,3.7c0,1.1-0.3,1.4-1.3,0.8c-1.6-1-3.3-1-5-0.4c-4.1,1.5-5.2,5.2-2.7,8.8
	c1.6,2.3,3.9,3.8,5.9,5.6c5.8,5.4,6.8,12,4.9,19.2c-2,7.4-8.8,13-16.5,13.8c-0.8,0.1-1.5,0.1-2.3-0.1c-1-0.2-1.5-0.7-1.5-1.8
	c0.1-2.4,0-4.9,0-7.3c0-0.4-0.1-1,0.4-1.2c0.5-0.3,0.8,0.2,1.1,0.5c2.4,1.8,4.9,1.9,7.4,0.4c2.7-1.7,3.9-4.2,3.6-7.4
	c-0.3-3.6-2.3-6.2-4.8-8.6c-1-1-2.1-1.9-3.1-2.9c-7.7-6.9-6.5-17.4,1.3-23.6c3.2-2.6,6.9-4.5,11.3-4.3c1,0,1.4,0.2,1.3,1.3
	C103.1,64.8,103.2,66.1,103.2,67.3z"/>
<path class="st0" d="M68.9,125.5c1.8-3.8,1.2-7.7,1.2-11.5c0.1-11.3,0-22.6,0-33.9c0-2,0.2-4-1.2-5.7c-0.5-0.6-0.2-0.9,0.5-1.1
	c3.5-1.1,6.9-2.3,10.7-3.5c-2.8,5.5-1.5,11.2-1.6,16.7c-0.2,10,0,20-0.1,30c0,1.4,0,2.9,0.9,4.1c1,1.2,0.2,1.5-0.7,1.8
	C75.4,123.4,72.2,124.5,68.9,125.5z"/>
<path class="st1" d="M65.9,141.3c-2.4-4.9-1.3-10.2-1.4-15.3c-0.1-19.4,0-38.8,0-58.2c0-1.5,0.1-3.1,0.6-4.6
	c0.3-1.1,0.9-1.6,2.3-1.5c-2.5,4.7-1.4,9.7-1.4,14.6c-0.1,19.9,0,39.8,0,59.7c0,1.7,0,3.4,0.9,4.9C66.6,141.3,66.4,141.6,65.9,141.3
	z"/>
<path class="st0" d="M81.9,122.4c-1-0.9-1.2-2.1-1.2-3.3c0-14.2,0-28.3,0-42.5c0-1.7-0.1-3.8,2.4-4.2c0,0,0.1,0.1,0.3,0.3
	c-2.2,3.3-1.5,7.1-1.5,10.8c0,11.6,0,23.2,0,34.8c0,1.4,0.1,2.8,0.5,4.2C82.2,122.6,82.1,122.6,81.9,122.4z"/>
<path class="st2" d="M160.8,101.2c3.6-0.4,7.1-1.1,10.1-3.5c1.7-1.3,2.6-2.8,2.5-5.1c-0.2-5.2-0.1-10.4,0-15.6
	c0-1.6,0.1-3.1,0.8-4.5c0.4-0.8,1.1-1.2,1.7-0.8c0.8,0.4-0.1,1-0.3,1.4c-0.8,1.3-0.9,2.8-0.9,4.3c0,5.3-0.1,10.7,0,16
	c0.1,2.2-0.8,3.8-2.5,5.1c-4,3.1-8.5,3.8-13.3,3.3C159.2,100.8,160.2,101.6,160.8,101.2z"/>
<path class="st3" d="M109.3,105.3c-0.6,2-1.1,4.1-2.3,5.9c-0.2,0.4-0.2,0.9-0.8,1.1c-4.4,6.4-12.3,10.1-17.9,8.2
	c7.1-0.3,12.8-3,16.5-8.9c3.7-5.8,4.2-12.1,1.8-18.6c-0.2-0.4,0-0.5,0.4-0.4c2.2,3,2.3,6.5,2.3,10.1
	C109.3,103.6,108.9,104.4,109.3,105.3z"/>
<path class="st4" d="M142.6,102.7c-1-0.9-1.3-2.2-1.6-3.4c-3.3-13.7-6.7-27.4-9.9-41.1c-0.2-0.6-1.1-1.8,0.1-2.1
	c0.8-0.2,0.7,1.2,0.8,1.8c3.4,14,6.8,28,10.2,42c0.2,0.9,0.6,1.8,0.8,2.8C143,102.8,142.8,102.8,142.6,102.7z"/>
<path class="st3" d="M165.8,56.5c-4.2,0.8-6.8,3.6-8.4,7.3c-3.6,8.2-3.8,16.5-0.5,24.9c0.1,0.5-0.2,0.5-0.5,0.5
	c-1.1-0.7-1.5-1.9-1.9-3.1c-2.8-8.5-2.3-16.8,2-24.7c0.9-1.7,2.3-3.2,3.8-4.3c1.9-1.5,4.1-2.2,6.5-1.4C167,56.3,167,56.3,165.8,56.5
	z"/>
<path class="st2" d="M180,99.5c0.7-0.7,1.4-0.4,2-0.4c6.4,0.1,12.9,0.2,19.3,0.4c1.4,0,1.8-0.3,1.7-1.7c-0.1-2.1,0-4.1,0-6.2
	c0-0.6,0-1.3,0.7-1.3c0.9,0,0.5,0.9,0.5,1.4c0,2.5,0,5,0,7.5c0,0.8-0.1,1.2-1,1.2c-7.5-0.2-15.1-0.4-22.6-0.6
	C180.5,99.8,180.4,99.6,180,99.5z"/>
<path class="st5" d="M103.6,73.1c-5.9,0.6-8,3.2-6.9,8.4c-1.7-1.2-2.3-3.7-1.2-5.6C96.9,73.1,100.5,71.8,103.6,73.1z"/>
<path class="st6" d="M199,71.9c0,1.5,0,2.9,0,4.4c0,0.4,0.1,0.9-0.5,0.9c-0.5,0-0.9-0.3-0.9-0.8c0-3,0-6,0-9c0-0.5,0.4-0.8,0.9-0.8
	s0.5,0.5,0.5,0.9C199,68.9,199,70.4,199,71.9z"/>
<path class="st7" d="M171.7,53.7c0-1.3,0-2.6,0-3.8c0-0.4-0.1-1,0.6-1c0.6,0,0.8,0.4,0.8,0.9c0,2.7,0,5.4,0,8.1c0,0.5-0.1,1-0.7,0.8
	c-0.5-0.1-0.7-0.4-0.7-1C171.7,56.3,171.7,55,171.7,53.7L171.7,53.7z"/>
<path class="st2" d="M81.9,122.4c0.2,0,0.3,0,0.5,0c1.3,1.8,1.3,1.8-0.8,2.5c-3,1-6,2-9,2.9c-0.1,0-0.2-0.1-0.4-0.1
	c-0.1-1.1,0.8-1.2,1.5-1.4c2.4-0.8,4.9-1.7,7.3-2.5C81.6,123.5,82.5,123.5,81.9,122.4z"/>
<path class="st8" d="M142.6,102.7c0.2,0,0.3,0,0.5,0c0.1,0.1,0.3,0.3,0.4,0.4c1.3,1.8,1.3,1.8-0.8,2.3c-2.6,0.6-5.3,1.2-7.9,1.8
	c-0.4,0.1-1,0.4-1.2-0.1c-0.2-0.6,0.3-0.8,0.9-1c2.5-0.6,5-1.3,7.5-1.8C143.3,104,143.2,103.5,142.6,102.7z"/>
<path class="st8" d="M203.1,53c0,1.3,0,2.6,0,3.8c0,0.4,0.3,1.2-0.5,1.1c-0.6,0-0.7-0.6-0.7-1.2c0-1.6,0-3.2,0-4.8c0-1,0-1.9,0-2.9
	c0-0.4-0.1-0.9,0.6-1c0.8,0,0.7,0.6,0.7,1.1C203.1,50.5,203.1,51.7,203.1,53z"/>
<path class="st9" d="M106.7,69.4c0,1.4,0,2.8,0,4.2c0,0.4-0.1,0.8-0.6,0.7c-0.4-0.1-0.8-0.2-0.7-0.8c0.4-2.5,0.1-5.1,0.2-7.6
	c0-0.4-0.3-1.1,0.5-1.2c1,0,0.6,0.8,0.6,1.3C106.7,67.1,106.7,68.3,106.7,69.4L106.7,69.4z"/>
<path class="st10" d="M12.9,91.9c1.4-0.2,2.2-0.2,3-0.3c1.9-0.3,3.3-1.2,4-3.1c0.1-0.4,0-1,0.8-0.7c0.6,0.2,0.7,0.5,0.6,1.2
	c-0.4,2.5-3.5,4.2-6.5,3.6C14.3,92.4,13.9,92.2,12.9,91.9z"/>
<path class="st11" d="M65.9,141.3c0.3-0.1,0.6-0.3,0.9-0.4c0.7,0.6,0.8,1-0.2,1.3c-2.8,0.7-5.6,1.5-8.4,2.3c-0.5,0.1-1,0.2-1.1-0.4
	s0.5-0.5,0.8-0.6C60.6,142.8,63.3,142.1,65.9,141.3z"/>
<path class="st12" d="M160.8,101.2c-0.5,0.6-1.4,0-1.9,0.6c-1,0-2-0.2-2.8-1C157.6,101.2,159.2,101.1,160.8,101.2z"/>
<path class="st13" d="M165.8,56.5c0.4-0.2,0.8-0.4,1.2-0.6c0.2-0.3,0.5-0.3,0.7-0.1c0.5,0,1,0,1.2,0.5
	C167.9,57,166.9,56.4,165.8,56.5z"/>
<path class="st14" d="M109.3,105.3c-0.7-0.9-0.5-1.8,0-2.7c0.1,0,0.2,0,0.3,0C109.5,103.5,109.4,104.4,109.3,105.3z"/>
<path class="st15" d="M156.6,89.1c0.1-0.1,0.3-0.3,0.4-0.4c0.4,0.4,0.7,1,0.8,1.5c-0.3,0-0.6,0-0.9,0
	C156.8,89.9,156.2,89.6,156.6,89.1z"/>
<path class="st16" d="M104.2,90c1.1-0.1,1.2,0.6,2,1C105,91.1,104.8,90.4,104.2,90z"/>
<path class="st17" d="M107,92.6c-0.1,0.1-0.3,0.3-0.4,0.4c-0.3-0.4-0.9-0.8-0.4-1.2C106.6,91.6,106.9,92.2,107,92.6z"/>
<path class="st18" d="M106.2,112.3c0.1-0.5,0.3-0.9,0.8-1.1c0,0.3,0.1,0.6,0.4,0.8C107.1,112.5,106.6,112.1,106.2,112.3z"/>
<path class="st19" d="M17.5,85.5c-1.8-0.5-2.4-1.7-2.5-3.2c-0.1-1.9,0.4-3.6,2.1-4.7c1.9-1.2,4-1.2,6.1-1.5c0.5-0.1,0.7,0.2,0.7,0.6
	c0,0.4,0.2,1-0.5,1.1c-0.4,0.1-0.8,0.1-1.1,0.1C18.2,78.8,16.7,81.2,17.5,85.5z"/>
<path class="st20" d="M123.6,70.4c2.6,5.2,0.2,9.9-0.4,14.7c-0.1,1.1-0.5,2.1-0.6,3.2c-0.2,1.5-1.4,1.5-2.3,1.5
	c-1,0.1-0.4-0.9-0.3-1.3c0.8-4,1.6-8.1,2.5-12.1C122.7,74.5,123.1,72.6,123.6,70.4z"/>
<path class="st21" d="M123.8,88.8c0.7-3.3,1.3-6.4,2-10c0.7,3,1.3,5.6,2,8.1c0.1,0.6-0.2,0.8-0.6,0.9
	C126.1,88.2,125.1,88.5,123.8,88.8z"/>
<path class="st22" d="M156.6,89.1c0.1,0.4,0.2,0.8,0.3,1.1c-3.2-2.2-4.3-5.6-5-9.2c-1.5-7.6-0.9-15,3.3-21.7c2.1-3.4,5-5.5,9.2-5.1
	c1.3,0.1,2.6,0.3,3.3,1.5c-0.2,0-0.5,0.1-0.7,0.1c-3.3-0.5-6,0.7-8.2,3.2C152.6,66.1,151.5,81.1,156.6,89.1z"/>
<path class="st23" d="M194.5,74.8c-1.5-0.1-2.7-0.1-3.9-0.3c-1.2-0.2-1.5,0.3-1.5,1.5c0.1,3.9,0,7.8,0,11.8c0,0.7,0.2,1.4-1,1.4
	c-1,0-1.3-0.4-1.3-1.4c0-4.5,0-9,0-13.5c0-1,0.3-1.3,1.3-1.3C191.4,73,192.5,73.2,194.5,74.8z"/>
<path class="st24" d="M194.8,55.1c-1.4-0.1-2.8,0-4.2-0.2c-1.3-0.1-1.5,0.4-1.5,1.5c0.1,2.5,0,5,0,7.5c0,0.7,0.3,1.6-1,1.5
	c-1.1,0-1.2-0.6-1.2-1.4c0-3.1,0-6.3,0-9.4c0-0.7,0-1.3,1-1.3c2.6,0.2,5.3-0.1,7.9,0.5c0.8,0.2,1.7,0.3,2,1.3
	C196.7,55.3,195.8,55.3,194.8,55.1z"/>
<path class="st25" d="M194.8,55.1c1,0,1.9,0,2.9,0C196.7,55.8,195.8,55.6,194.8,55.1z"/>
</svg>
