<?xml version="1.0" encoding="UTF-8"?>
<svg id="Calque_2" data-name="Calque 2" xmlns="http://www.w3.org/2000/svg" viewBox="0 0 1578.72 1429">
  <defs>
    <style>
      .cls-1 {
        fill: #dab418;
      }

      .cls-1, .cls-2, .cls-3, .cls-4 {
        stroke-width: 0px;
      }

      .cls-2 {
        fill: #fed119;
      }

      .cls-3 {
        fill: #ffec9e;
      }

      .cls-4 {
        fill: #543a14;
      }
    </style>
  </defs>
  <g id="Calque_1-2" data-name="Calque 1">
    <path class="cls-2" d="M1106.35,1427.94c-7.55,1.75-15.23.79-22.83.79-165.04.06-330.08.02-495.12-.06-19.15,0-38.3-.03-57.44-.59-57.61-1.67-104.05-25.92-140.38-70.24-2.95-3.6-5.83-7.28-8.56-11.05-3.32-4.58-7.53-6.71-13.29-6.07-12.09,1.34-24.23,1.77-36.4,1.23-57.03-2.52-106.77-46.47-116.73-102.86-5-28.34-1.86-55.63,9.06-82.15,2.83-6.87,2.78-6.86-4.37-9.19-32.11-10.48-61.19-26.08-84.82-50.71-17.52-18.26-29.45-39.33-32.12-64.98-.82-7.86-.42-15.62,1.1-23.35,1.38-7,.81-8.31-5.51-11.44-27.67-13.69-51.13-32.35-68.55-58.09-15.98-23.61-24.85-49.87-28.59-77.99-6.43-48.43,4.24-92.93,31.32-133.45,16.73-25.04,38.48-44.8,64.81-59.47,8.22-4.58,8.2-4.89.92-10.97-17.23-14.39-31.46-31.08-39.87-52.22-12.93-32.51-7.44-62.66,11.85-90.93,15.54-22.78,37.17-38.3,61.44-50.49,19.6-9.84,40.29-16.47,61.87-20.35,1.71-.31,4.2-.07,4.73-2.08.49-1.84-1.87-2.47-3.08-3.47-42.72-35.12-62.42-80.57-58.68-135.44,3.96-58.13,42.52-109.43,98.09-125.94,8.8-2.61,17.72-4.7,26.83-5.53,14.5-1.32,24.71-8.78,30.64-21.57,4.96-10.69,8.34-22.1,13.02-32.93,27.1-62.84,74.98-99.63,141.74-112.75C460.59,1.05,473.8.01,487.14.01c135.06-.02,270.13-.02,405.19.02,4.98,0,9.96.43,14.95.66,25.78,2.22,49.84,10.38,72,23.23,29.09,16.88,53.34,39.16,70.14,68.79,4.13,7.27,2.43,10.31-6.14,10.37-21.32.16-42.64.05-63.95.05-5.26,0-10.22.94-14.87,3.56-12.9,7.29-16.98,21.32-15.08,29.72,3.44,15.21,14.7,25.13,29.8,25.67,10.29.37,20.64.89,30.92-.61,2.31-.34,4.66-.21,6.99-.21,24.15,0,48.3-.17,72.45.08,10.3.11,20.59,1.23,30.92.95,9.04-.24,17.98-.5,25.69-6.32,3.15-2.38,6.44-1,9.27,1,12.09,8.51,22.64,18.62,30.82,30.98,15.54,23.48,21.52,49.52,20.3,77.42-.33,7.47-2.5,9.6-10.23,9.63-18.99.08-37.97.14-56.96-.03-7.19-.06-14.31.52-21.42,1.25-13.93,1.42-23.08,11.67-24.51,27.15-1.22,13.25,7.04,25.78,19.69,29.59,5.11,1.54,10.31,2.67,15.74,1.45,2.27-.51,4.65-.26,6.98-.26,19.82,0,39.64.09,59.46-.06,6.19-.05,12.26,1.14,18.42,1.24,1.51.03,2.96.53,4.27,1.29,26.94,15.54,49.33,35.62,63.6,63.79,1.51,2.97,2.77,6.07,3.82,9.23,2.13,6.46.28,9.06-6.5,9.28-1.83.06-3.66.02-5.5.02-19.49,0-38.97-.18-58.46.06-16.13.2-27.54,10.39-29.17,25.36-1.81,16.63,8.75,29.96,24.84,32.76,3.79.66,7.58.96,11.43.95,24.15-.03,48.3.04,72.45-.06,5.43-.02,10.09,1.41,14.25,4.94,19.36,16.44,36.14,34.94,46.82,58.34,9.22,20.22,15.15,41.23,14.9,63.66-.1,8.81.36,17.62-.91,26.43-1.26,8.71-2.86,10.41-11.85,10.42-29.15.02-58.29-.07-87.44.06-7.87.03-15.53,1.15-22.47,5.55-11.14,7.08-13.36,17.72-12.07,29.63,1.13,10.47,7.84,16.93,16.88,21.3,4.28,2.07,8.85,2.63,13.6,2.62,40.8-.06,81.61.09,122.41-.13,10.13-.05,17.6,3.27,23.91,11.56,16.58,21.78,27.27,45.62,25.59,73.36-1.6,26.39-11.99,49.71-29.07,69.85-26.93,31.76-61.07,52.6-100.53,65.03-6.66,2.1-13.58,3.12-20.67,3.05-17.49-.16-34.97.02-52.46-.09-5.53-.03-10.97.54-16.39,1.46-16.63,2.83-26.25,14.88-25.38,31.71.72,14.09,13.38,25.71,28.67,27.01,11.31.96,22.61.96,33.92.97,19.65.01,39.31-.1,58.96.06,6.85.06,13.57-1.21,20.43-1.14,7.86.09,13.04,3.22,16.58,10.39,15.04,30.51,20.83,62.45,17.66,96.42-2.42,25.84-10.47,49.42-24.38,71.08-13,20.24-30,36.45-50.89,48.43-6.6,3.78-13.78,5.53-21.51,5.52-59.79-.09-119.58.03-179.37-.11-13.17-.03-21.81,5.98-27.86,17.38-7.88,14.86,1.56,32.93,15.15,38.69,4.93,2.09,10.12,3.18,15.56,3.14,15.16-.1,30.31-.04,45.47-.03,1.83,0,3.67-.1,5.48.23,2.54.46,3.98,1.84,1.62,3.9-4.76,4.16-5.62,9.92-7.42,15.46-7.59,23.33-18.65,44.91-34.26,63.92-18.99,23.11-41.98,41.27-69.19,53.85-14.82,6.86-30.45,11.33-47.06,14.92.02,0,.86.7.51.14-.1-.16,0-.29.33-.38,3.38-.96,6.85-1.13,10.33-1.13,22.48,0,44.98-.37,67.45.16,10.63.25,21.27.83,31.92.88,1.66,0,3.39-.01,4.64,1.43Z"/>
    <path class="cls-1" d="M1106.35,1427.94c-38.59-1.12-77.19-1.18-115.9-1.55,6.94-2.11,13.82-4.46,20.83-6.3,25.89-6.78,48.45-19.71,68.95-36.63,28.34-23.39,47.52-52.96,59.44-87.48.7-2.02,1.08-4.16,1.57-6.25,1.23-5.28,3.34-10,8.11-13.77h-7.69c-15.66,0-31.31.03-46.97,0-17.61-.05-31.84-12.56-33.3-30.01-1.11-13.19,11.23-31.98,29.09-31.96,59.12.06,118.25-.34,177.37.29,15.6.17,28.03-5.5,39.77-14.37,13.06-9.88,24.71-21.25,33.84-34.88,12.02-17.93,20.97-37.17,24.78-58.74,2.86-16.17,3.38-32.39,2.65-48.62-.72-16.16-4.96-31.73-10.98-46.75-2.41-6.01-5.29-11.83-7.83-17.79-2.39-5.61-6.76-7.73-12.58-7.99-6.01-.27-11.92.89-17.88.92-28.31.12-56.63.35-84.94-.12-8.96-.15-18.18-.06-26.63-4.72-11.17-6.15-17.86-19.26-15.82-32.42,1.89-12.16,11.96-22.12,24.25-24.75,9.04-1.94,18.13-1.87,27.25-1.86,13.32.01,26.66-.33,39.97.13,15.91.55,30.4-4.31,44.72-10.29,19.59-8.18,37.74-18.92,54.19-32.26,21.07-17.09,38.35-37.37,47.64-63.28,11.4-31.82,8.16-62.28-10.38-90.79-3.88-5.97-8.11-11.74-12.53-17.33-3.93-4.97-9.7-6.05-15.7-6.05-42.47,0-84.94.02-127.41.02-12.48,0-25.15-7.86-28.62-19.55-5.75-19.39,1.94-37.73,24.7-41.48,10.11-1.67,20.25-.81,30.37-.88,23.15-.17,46.3-.19,69.45.06,4.94.05,7.29-1.98,7.73-6.37,2.31-22.93,2.11-45.68-4.43-68.08-6.48-22.18-17.13-42.13-32.17-59.55-7.45-8.64-16.19-16.13-24.92-23.55-3.16-2.68-6.59-3.51-10.55-3.5-25.15.04-50.3.05-75.45,0-8.4-.02-16.28-1.48-23.56-6.42-11.14-7.56-14.63-22.69-12.04-32.19,4.48-16.4,15.81-22.9,28.8-23.18,21.64-.48,43.3-.13,64.95-.14,6.95,0,7.86-1.36,5.45-8.01-6.15-16.91-16.88-30.78-29.21-43.51-10.92-11.28-23.75-20.16-37.21-28.09-4.76-2.8-10.48-1.95-15.6-2.06-23.81-.5-47.64-.7-71.44.04-8.2.25-15.84.01-23.08-3.72-12.08-6.23-18.04-20.26-14.81-34.25,3.32-14.35,13.83-22.47,28.28-23.42,25.28-1.66,50.57-.33,75.84-.81,7.11-.14,8.16-1.24,8.42-8.51.76-21.22-2.35-41.72-11.39-61.07-8.92-19.1-22.49-34.33-39.67-46.4-2.39-1.68-5.13-2.94-7.72-.48-6.1,5.76-13.86,6.49-21.42,6.32-36.27-.85-72.54-1.13-108.81-.65-11.61.16-23.24.77-34.87.77-17.1,0-31.29-11.16-33.59-28.09-1.52-11.17,3.26-20.74,12.44-27.78,5.78-4.43,12.24-6.21,19.51-6.15,21.15.16,42.3.06,63.45.04,1.81,0,3.62.16,5.41-.58,2.39-.98,2.93-2.3,1.64-4.62-10.36-18.63-23.88-34.58-39.97-48.55-13.51-11.73-28-21.79-44.24-29.33-16.66-7.74-33.99-13.19-52.18-15.87-2.23-.33-4.62-.39-6.48-2.02,2.77-.8,5.61-.62,8.44-.62,36.47-.01,72.95-.04,109.42,0,82.71.09,154.92,51.4,182.36,129.54,2.77,7.9,2.78,8.05,11.24,7.79,28.55-.85,55.15,5.16,79.01,21.58,26.77,18.41,41.79,44.01,47.27,75.7,5.02,28.98.39,56.27-13.61,82.07-3.02,5.57-2.58,6.55,3.67,9.13,26.88,11.09,50.57,26.78,69.67,48.87,17.08,19.74,27.73,42.17,27.32,68.91-.09,6.03-1.16,11.91-2.72,17.72-1.8,6.74-1.28,8.15,4.81,11.85,30.3,18.4,52.72,43.57,65.53,76.8,14.38,37.33,15.66,75.24,4.12,113.56-2.37,7.88-2.4,7.92,4.66,12.15,21.41,12.84,40.2,28.54,53.45,50.02,22.49,36.48,22.05,73.44.88,110.16-18.07,31.34-45.63,52.46-77.14,68.93-16.88,8.83-34.75,15.13-53.05,20.28-.93.26-1.84.62-3.5,1.18,5.68,4.05,11.02,7.53,16.01,11.45,40.12,31.61,62.66,72.93,65.93,123.87,3.49,54.36-15.45,99.92-57.38,135.16-19.27,16.2-42.14,25.19-66.67,30.02-6.74,1.33-12.65,3.97-17.53,8.82-20.37,20.23-44.96,32.99-72.45,40.28-7.27,1.93-11.21,5.73-13.46,12.88-11.61,36.93-30.36,69.44-60.35,94.68-27.05,22.77-58.69,35.53-93.01,42.4-7.88,1.58-15.85,1.85-23.83,2.09Z"/>
    <path class="cls-4" d="M667.47,912.1c-.55-60.69,13.62-121.58,47.55-177.06,23.84-38.99,55.4-70.32,98.4-87.37,60.09-23.83,115.63-13.04,165.94,26.46,39.91,31.33,65.16,72.94,81.69,120.17,20.57,58.77,24.37,118.95,13.67,180.17-2.55,14.6-6.02,28.98-10.17,43.2-4.87,16.67-13.73,30.95-25.8,43.3-33.24,33.97-74.14,52.79-120.49,60.82-57.09,9.89-111.32,1.77-162.53-25.61-17.46-9.33-32.83-21.32-46.84-35.35-15.16-15.19-23-33.82-28.47-54.04-8.03-29.73-12.11-59.97-12.96-94.68Z"/>
    <path class="cls-3" d="M215.64,783.35c-39.14,0-78.28.08-117.43-.04-12.89-.04-24.17-8.47-28.4-20.6-7.08-20.27,7.11-40.42,28.6-41.41,27.29-1.26,54.58-.81,81.87-.87,43.64-.09,87.28-.25,130.92.16,9.4.09,18.93-.05,28.31,1.65,14.01,2.54,24.46,14.27,25.1,28.33.67,14.7-9.11,27.99-23.16,31.66-5.24,1.37-10.56,1.18-15.87,1.19-36.64.03-73.29.01-109.93.01v-.07Z"/>
    <path class="cls-3" d="M283.1,479.42c37.63,0,75.26-.07,112.89.04,13.43.04,26.19,9.98,29.58,22.73,4.33,16.27-5.79,39.01-30.36,39.16-25.81.15-51.61.05-77.42.05-48.12,0-96.24.02-144.36,0-17.73,0-29.95-9.73-32.72-26.62-3.13-19.02,11.95-35.27,29.01-35.32,32.97-.11,65.93-.05,98.9-.06,4.83,0,9.66,0,14.49,0v.04Z"/>
    <path class="cls-3" d="M355.92,278.6c-33.8,0-67.61.1-101.41-.06-9.83-.05-19.07-2.2-26.31-9.8-8.7-9.14-10.6-19.91-7.01-31.42,3.7-11.85,12.71-18.29,24.7-20.63,4.91-.96,9.89-1.08,14.89-1.07,64.45.04,128.89.01,193.34.05,10.25,0,19.64,2.16,27.21,10,15.95,16.54,9.56,43.62-12.25,51.01-3.79,1.28-7.67,1.98-11.73,1.97-33.8-.07-67.61-.04-101.41-.04Z"/>
    <path class="cls-3" d="M288.84,983.14c29.62,0,59.25-.02,88.87.02,7.25,0,14.22,1.5,20.54,5.12,11.88,6.8,17.28,19.77,14.23,33.67-2.57,11.71-14.15,21.6-26.52,23.23-10.45,1.38-20.92.85-31.37.87-51.26.1-102.52.03-153.78-.02-18.21-.02-29.81-8.35-34.34-24.51-4.62-16.48,7.69-35.01,24.6-37.46,5.3-.77,10.57-.97,15.88-.97,27.29,0,54.59,0,81.88,0,0,.02,0,.04,0,.06Z"/>
    <path class="cls-3" d="M342.61,1184.12c10,.65,22.31-1,34.57.85,14.9,2.26,26.63,15.93,26.04,31.19-.66,17.23-14.15,29.85-31.13,29.93-21.58.09-43.17.12-64.75,0-14.06-.08-26.07-9.06-29.58-21.73-3.97-14.36,1.37-28.19,13.97-35.67,5.71-3.39,12.14-4.42,18.65-4.53,9.98-.16,19.96-.04,32.22-.04Z"/>
    <path class="cls-3" d="M519.54,78.48c.15-15.8,12.15-28.72,28.58-29.53,17.22-.86,34.44-.77,51.72.39,10.82.73,21.66,9.94,24.32,21.5,4.15,18.08-4.6,34-21.75,38.3-3.51.88-7.2,1.32-10.82,1.46-14.74.59-29.45.54-44.21-.63-18.08-1.44-28.36-18.39-27.84-31.49Z"/>
    <path class="cls-3" d="M561.53,278.65c-9.28-.01-18.61.59-27.78-1.14-11.76-2.21-19.9-8.87-23.22-20.61-4.1-14.5.04-28.26,12.43-36.24,3.64-2.34,7.72-3.47,11.76-3.7,18.04-1.02,36.14-2.46,54.11.68,11.34,1.98,18.1,9.7,21.42,20.06,3.19,9.96,1.99,19.89-4.74,28.29-6.95,8.68-16.4,12.65-27.51,12.66-5.49,0-10.98,0-16.47,0Z"/>
    <path class="cls-3" d="M544.13,1348.77c8.25.96,16.29.41,24.01,2.89,12.54,4.03,20.13,14.36,21.24,28.98.81,10.7-6.89,23.05-17.61,28.02-8.21,3.81-16.97,3.58-25.79,3.76-6.96.14-13.85-.04-20.79-.4-19.47-1.01-32.12-14.26-31.63-33.65.33-12.95,11.31-25.68,24.13-27.32,8.88-1.14,17.84-1.55,26.44-2.26Z"/>
    <path class="cls-3" d="M432.42,110.84c-8.74-.12-16.4.41-23.89-1.68-15.39-4.3-23.21-15.16-22.95-31.88.21-13.02,10.25-25.67,24.04-28.14,14.74-2.65,29.9-3.05,44.52.44,18.38,4.39,24.45,17.24,24.19,30.93-.31,16.1-10.92,26.64-27.14,29.41-6.65,1.14-13.26.49-18.77.92Z"/>
    <path class="cls-3" d="M492.05,1184.16c10.73-.03,19.87-.68,28.44,3.74,12.45,6.42,18.96,20.27,15.79,34.35-3.03,13.45-15.41,23.29-29.03,23.97-9.14.46-18.2.37-27.33,0-15.6-.62-29.06-12.23-30.33-27.03-1.47-17.23,8.82-31.07,25.18-34.21,6.29-1.21,12.59-.63,17.28-.82Z"/>
    <path class="cls-3" d="M653.11,1348.97c6.51-.2,12.38.83,18.3,1.66,11.21,1.59,22.16,13.34,23.95,25.15,1.96,12.94-5.38,27.36-16.86,33-6.06,2.98-12.85,3.29-19.42,3.89-8.29.76-16.59.36-24.74-1.78-15.09-3.96-24.94-17.63-23.79-33.14,1.06-14.3,13.46-26.31,28.68-27.82,4.79-.48,9.54-1.4,13.89-.97Z"/>
  </g>
</svg>